<?xml version="1.0" standalone="no"?>
<!DOCTYPE svg PUBLIC "-//W3C//DTD SVG 20010904//EN"
 "http://www.w3.org/TR/2001/REC-SVG-20010904/DTD/svg10.dtd">
<svg version="1.0" xmlns="http://www.w3.org/2000/svg"
 width="24.000000pt" height="24.000000pt" viewBox="0 0 24.000000 24.000000"
 preserveAspectRatio="xMidYMid meet">

<g transform="translate(0.000000,24.000000) scale(0.100000,-0.100000)"
fill="#000000" stroke="none">
<path d="M83 219 c-4 -14 -12 -19 -23 -16 -34 9 -65 -35 -47 -65 9 -13 9 -23
0 -36 -18 -30 13 -74 47 -65 11 3 19 -2 23 -16 7 -30 67 -30 74 0 4 14 12 19
23 16 34 -9 65 35 47 65 -9 13 -9 23 0 36 18 30 -13 74 -47 65 -11 -3 -19 2
-23 16 -7 30 -67 30 -74 0z m65 -20 c9 -14 20 -19 33 -16 25 7 41 -21 26 -45
-9 -13 -9 -23 0 -36 15 -24 -1 -52 -26 -45 -13 3 -24 -2 -33 -16 -16 -27 -40
-27 -56 0 -9 14 -20 19 -33 16 -25 -7 -41 21 -26 45 9 13 9 23 0 36 -15 24 1
52 26 45 13 -3 24 2 33 16 16 27 40 27 56 0z"/>
<path d="M90 150 c-11 -11 -20 -24 -20 -30 0 -13 37 -50 50 -50 13 0 50 37 50
50 0 6 -9 19 -20 30 -11 11 -24 20 -30 20 -5 0 -19 -9 -30 -20z m50 -16 c11
-12 10 -18 -3 -32 -16 -15 -18 -15 -34 0 -13 14 -14 20 -3 32 16 20 24 20 40
0z"/>
</g>
</svg>
