<?xml version="1.0" standalone="no"?>
<!DOCTYPE svg PUBLIC "-//W3C//DTD SVG 20010904//EN"
 "http://www.w3.org/TR/2001/REC-SVG-20010904/DTD/svg10.dtd">
<svg version="1.0" xmlns="http://www.w3.org/2000/svg"
 width="24.000000pt" height="24.000000pt" viewBox="0 0 24.000000 24.000000"
 preserveAspectRatio="xMidYMid meet">

<g transform="translate(0.000000,24.000000) scale(0.100000,-0.100000)"
fill="#000000" stroke="none">
<path d="M4 217 c-3 -8 -4 -47 -2 -88 3 -71 4 -74 28 -76 l25 -2 -25 8 c-16 6
15 9 90 8 l115 -1 -90 -6 -90 -7 90 1 90 1 0 85 c0 84 0 85 -25 86 -22 1 -22
0 -2 -3 20 -4 22 -10 22 -74 l0 -69 -110 0 -110 0 0 70 0 69 78 4 77 3 -78 2
c-57 1 -79 -2 -83 -11z"/>
<path d="M185 179 c-6 -17 -9 -19 -16 -8 -7 11 -9 10 -9 -3 0 -13 8 -18 30
-18 25 0 30 4 30 25 0 31 -26 34 -35 4z m22 -11 c-3 -8 -6 -5 -6 6 -1 11 2 17
5 13 3 -3 4 -12 1 -19z"/>
<path d="M48 123 c12 -2 30 -2 40 0 9 3 -1 5 -23 4 -22 0 -30 -2 -17 -4z"/>
<path d="M140 120 c-9 -6 -10 -10 -3 -10 6 0 15 5 18 10 8 12 4 12 -15 0z"/>
<path d="M190 120 c8 -5 20 -10 25 -10 6 0 3 5 -5 10 -8 5 -19 10 -25 10 -5 0
-3 -5 5 -10z"/>
<path d="M28 103 c6 -2 18 -2 25 0 6 3 1 5 -13 5 -14 0 -19 -2 -12 -5z"/>
<path d="M77 33 c-17 -16 -3 -23 43 -23 48 0 63 11 38 26 -7 4 -8 3 -4 -4 5
-8 -5 -12 -34 -12 -25 0 -39 4 -35 10 7 11 2 13 -8 3z"/>
</g>
</svg>
