<?xml version="1.0" standalone="no"?>
<!DOCTYPE svg PUBLIC "-//W3C//DTD SVG 20010904//EN"
 "http://www.w3.org/TR/2001/REC-SVG-20010904/DTD/svg10.dtd">
<svg version="1.0" xmlns="http://www.w3.org/2000/svg"
 width="24.000000pt" height="24.000000pt" viewBox="0 0 24.000000 24.000000"
 preserveAspectRatio="xMidYMid meet">

<g transform="translate(0.000000,24.000000) scale(0.100000,-0.100000)"
fill="#000000" stroke="none">
<path d="M3 215 c-8 -23 2 -114 15 -127 7 -7 14 -3 23 13 11 21 11 23 -3 11
-20 -16 -28 2 -28 65 l0 45 69 -4 c38 -2 67 0 64 5 -2 4 -33 7 -69 7 -49 0
-66 -4 -71 -15z"/>
<path d="M152 173 l77 -4 4 -54 4 -55 -1 57 -1 58 -80 1 -80 0 77 -3z"/>
<path d="M128 143 c18 -2 45 -2 60 0 15 2 0 4 -33 4 -33 0 -45 -2 -27 -4z"/>
<path d="M128 93 c18 -2 45 -2 60 0 15 2 0 4 -33 4 -33 0 -45 -2 -27 -4z"/>
<path d="M195 40 c10 -11 20 -20 23 -20 3 0 -3 9 -13 20 -10 11 -20 20 -23 20
-3 0 3 -9 13 -20z"/>
</g>
</svg>
