<?xml version="1.0" standalone="no"?>
<!DOCTYPE svg PUBLIC "-//W3C//DTD SVG 20010904//EN"
 "http://www.w3.org/TR/2001/REC-SVG-20010904/DTD/svg10.dtd">
<svg version="1.0" xmlns="http://www.w3.org/2000/svg"
 width="24.000000pt" height="24.000000pt" viewBox="0 0 24.000000 24.000000"
 preserveAspectRatio="xMidYMid meet">

<g transform="translate(0.000000,24.000000) scale(0.100000,-0.100000)"
fill="#000000" stroke="none">
<path d="M12 228 c-16 -16 -16 -200 0 -216 14 -14 128 -16 128 -2 0 6 -27 10
-60 10 l-60 0 0 100 0 100 100 0 100 0 0 -55 c0 -30 5 -55 10 -55 14 0 12 104
-2 118 -16 16 -200 16 -216 0z"/>
<path d="M108 173 c17 -2 47 -2 65 0 17 2 3 4 -33 4 -36 0 -50 -2 -32 -4z"/>
<path d="M80 120 c0 -5 25 -10 55 -10 30 0 55 5 55 10 0 6 -25 10 -55 10 -30
0 -55 -4 -55 -10z"/>
<path d="M137 75 c-9 -21 1 -41 28 -59 21 -14 25 -14 50 6 16 13 25 28 23 42
-2 17 -11 22 -49 24 -35 2 -48 -1 -52 -13z m83 -14 c0 -2 -7 -13 -17 -23 -15
-17 -17 -17 -35 -2 -26 25 -22 32 17 31 19 -1 35 -3 35 -6z"/>
<path d="M88 63 c7 -3 16 -2 19 1 4 3 -2 6 -13 5 -11 0 -14 -3 -6 -6z"/>
</g>
</svg>
